<svg xmlns="http://www.w3.org/2000/svg" viewBox="0 0 100 100">
  <defs>
    <style>
      .heart-fill { fill: #006838; }
    </style>
  </defs>

  <!-- Outer heart shape -->
  <path class="heart-fill" d="M50 90C50 90 5 55 5 30C5 12 18 2 33 2C42 2 49 8 50 12C51 8 58 2 67 2C82 2 95 12 95 30C95 55 50 90 50 90Z"/>

  <!-- Inner heart cutout (white) creating the heart outline effect -->
  <path fill="white" d="M50 78C50 78 15 50 15 32C15 18 25 11 36 11C43 11 48 15 50 18C52 15 57 11 64 11C75 11 85 18 85 32C85 50 50 78 50 78Z"/>

  <!-- Leaf filling the inner area -->
  <path class="heart-fill" d="M50 15C50 15 72 22 72 50C72 70 50 82 50 82C50 82 28 70 28 50C28 22 50 15 50 15Z"/>

  <!-- Leaf center vein (white) -->
  <path fill="white" d="M48 22C48 22 46 45 48 75L52 75C54 45 52 22 52 22C51 20 49 20 48 22Z"/>

  <!-- Upper left leaf vein -->
  <path fill="white" d="M49 32C47 32 38 38 36 45C35 47 37 48 38 47C42 42 48 37 50 36C51 35 51 32 49 32Z"/>

  <!-- Upper right leaf vein -->
  <path fill="white" d="M51 32C53 32 62 38 64 45C65 47 63 48 62 47C58 42 52 37 50 36C49 35 49 32 51 32Z"/>

  <!-- Lower left leaf vein -->
  <path fill="white" d="M49 50C47 50 40 55 38 62C37 64 39 65 40 64C44 59 48 54 50 53C51 52 51 50 49 50Z"/>

  <!-- Lower right leaf vein -->
  <path fill="white" d="M51 50C53 50 60 55 62 62C63 64 61 65 60 64C56 59 52 54 50 53C49 52 49 50 51 50Z"/>
</svg>